HIERARCHY
ROOT Hips
{
	OFFSET 0.000000 83.214638 0.000000
	CHANNELS 6 Xposition Yposition Zposition Xrotation Yrotation Zrotation
	JOINT Pelvis
	{
		OFFSET 0.000000 0.000000 0.000000
		CHANNELS 3 Xrotation Yrotation Zrotation
		JOINT LeftUpLeg
		{
			OFFSET 8.479700 -4.795502 -0.379100
			CHANNELS 3 Xrotation Yrotation Zrotation
			JOINT LeftLeg
			{
				OFFSET 0.024144 -32.555107 0.112900
				CHANNELS 3 Xrotation Yrotation Zrotation
				JOINT LeftFoot
				{
					OFFSET -0.024144 -32.638630 -3.012600
					CHANNELS 3 Xrotation Yrotation Zrotation
					JOINT LeftToeBase
					{
						OFFSET 0.970200 -13.225400 11.864200
						CHANNELS 3 Xrotation Yrotation Zrotation
						End Site
						{
							OFFSET 0.000000 12.319262 0.000000
						}
					}
					JOINT LFootTongue
					{
						OFFSET 1.142400 -1.059800 6.665200
						CHANNELS 3 Xrotation Yrotation Zrotation
						End Site
						{
							OFFSET 0.000000 12.319262 0.000000
						}
					}
				}
				JOINT LeftPantLeg
				{
					OFFSET 0.918482 -16.533964 -2.284700
					CHANNELS 3 Xrotation Yrotation Zrotation
					End Site
					{
						OFFSET 0.350399 24.744368 0.000000
					}
				}
			}
		}
		JOINT RightUpLeg
		{
			OFFSET -8.479700 -4.795502 -0.379100
			CHANNELS 3 Xrotation Yrotation Zrotation
			JOINT RightLeg
			{
				OFFSET -0.023144 -32.555092 0.112900
				CHANNELS 3 Xrotation Yrotation Zrotation
				JOINT RightFoot
				{
					OFFSET 0.023144 -32.638641 -3.012700
					CHANNELS 3 Xrotation Yrotation Zrotation
					JOINT RightToeBase
					{
						OFFSET -0.970200 -13.225400 11.864200
						CHANNELS 3 Xrotation Yrotation Zrotation
						End Site
						{
							OFFSET 0.000000 12.319244 0.000000
						}
					}
					JOINT RFootTongue
					{
						OFFSET -1.142200 -1.059800 6.665200
						CHANNELS 3 Xrotation Yrotation Zrotation
						End Site
						{
							OFFSET 0.000000 12.319243 0.000000
						}
					}
				}
				JOINT RightPantLeg
				{
					OFFSET -0.919482 -16.533978 -2.284800
					CHANNELS 3 Xrotation Yrotation Zrotation
					End Site
					{
						OFFSET -0.350400 24.744419 0.000000
					}
				}
			}
		}
	}
	JOINT Spine
	{
		OFFSET 0.000000 7.722000 1.166200
		CHANNELS 3 Xrotation Yrotation Zrotation
		JOINT Spine1
		{
			OFFSET 0.000000 12.024101 0.248800
			CHANNELS 3 Xrotation Yrotation Zrotation
			JOINT Spine2
			{
				OFFSET 0.000000 11.502998 -0.491200
				CHANNELS 3 Xrotation Yrotation Zrotation
				JOINT Neck
				{
					OFFSET 0.000000 18.430702 -3.123100
					CHANNELS 3 Xrotation Yrotation Zrotation
					JOINT Head
					{
						OFFSET 0.000000 9.051102 1.034000
						CHANNELS 3 Xrotation Yrotation Zrotation
						JOINT HairB
						{
							OFFSET 0.208400 24.786102 24.822300
							CHANNELS 3 Xrotation Yrotation Zrotation
							End Site
							{
								OFFSET 0.000000 32.263779 0.000000
							}
						}
						JOINT HairA
						{
							OFFSET -7.081100 24.428299 23.196600
							CHANNELS 3 Xrotation Yrotation Zrotation
							End Site
							{
								OFFSET 0.000000 32.263779 0.000000
							}
						}
						JOINT Hat
						{
							OFFSET 16.728800 15.048294 -15.439601
							CHANNELS 3 Xrotation Yrotation Zrotation
							End Site
							{
								OFFSET 0.000000 32.263779 0.000000
							}
						}
					}
				}
				JOINT LeftShoulder
				{
					OFFSET 6.197800 13.665199 -4.064700
					CHANNELS 3 Xrotation Yrotation Zrotation
					JOINT LeftArm
					{
						OFFSET 7.778100 -0.187103 -1.709300
						CHANNELS 3 Xrotation Yrotation Zrotation
						JOINT LeftForeArm
						{
							OFFSET 22.049376 0.000000 0.000000
							CHANNELS 3 Xrotation Yrotation Zrotation
							JOINT LeftHand
							{
								OFFSET 23.009392 0.000000 0.000000
								CHANNELS 3 Xrotation Yrotation Zrotation
								JOINT LeftHandThumb1
								{
									OFFSET 3.507191 -2.063065 3.133727
									CHANNELS 3 Xrotation Yrotation Zrotation
									JOINT LeftHandThumb2
									{
										OFFSET 3.101337 -1.790558 1.790558
										CHANNELS 3 Xrotation Yrotation Zrotation
										JOINT LeftHandThumb3
										{
											OFFSET 3.058640 -1.765907 1.765906
											CHANNELS 3 Xrotation Yrotation Zrotation
											End Site
											{
												OFFSET -0.415260 3.926476 -0.049563
											}
										}
									}
								}
								JOINT LeftHandIndex1
								{
									OFFSET 11.334419 -0.901459 3.706815
									CHANNELS 3 Xrotation Yrotation Zrotation
									JOINT LeftHandIndex2
									{
										OFFSET 3.283112 0.000000 0.000000
										CHANNELS 3 Xrotation Yrotation Zrotation
										JOINT LeftHandIndex3
										{
											OFFSET 3.323853 0.000000 0.000000
											CHANNELS 3 Xrotation Yrotation Zrotation
											End Site
											{
												OFFSET -1.135597 3.097809 0.402452
											}
										}
									}
								}
								JOINT LeftHandMiddle1
								{
									OFFSET 11.335861 0.000000 0.000000
									CHANNELS 3 Xrotation Yrotation Zrotation
									JOINT LeftHandMiddle2
									{
										OFFSET 3.410492 0.000000 0.000000
										CHANNELS 3 Xrotation Yrotation Zrotation
										JOINT LeftHandMiddle3
										{
											OFFSET 3.312172 0.000000 0.000000
											CHANNELS 3 Xrotation Yrotation Zrotation
											End Site
											{
												OFFSET -1.150200 3.080154 0.400270
											}
										}
									}
								}
								JOINT LeftHandRing1
								{
									OFFSET 11.514786 -0.013176 -3.003090
									CHANNELS 3 Xrotation Yrotation Zrotation
									JOINT LeftHandRing2
									{
										OFFSET 3.053307 0.000000 0.000000
										CHANNELS 3 Xrotation Yrotation Zrotation
										JOINT LeftHandRing3
										{
											OFFSET 3.295807 0.000000 0.000000
											CHANNELS 3 Xrotation Yrotation Zrotation
											End Site
											{
												OFFSET -1.281006 3.013344 0.375733
											}
										}
									}
								}
								JOINT LeftHandPinky1
								{
									OFFSET 10.518692 -0.960396 -5.730441
									CHANNELS 3 Xrotation Yrotation Zrotation
									JOINT LeftHandPinky2
									{
										OFFSET 2.861649 0.000000 0.000000
										CHANNELS 3 Xrotation Yrotation Zrotation
										JOINT LeftHandPinky3
										{
											OFFSET 2.863380 0.000000 0.000000
											CHANNELS 3 Xrotation Yrotation Zrotation
											End Site
											{
												OFFSET -0.843597 2.711159 0.369971
											}
										}
									}
								}
							}
							JOINT LSleeve
							{
								OFFSET 6.676277 -0.344902 -1.011730
								CHANNELS 3 Xrotation Yrotation Zrotation
								End Site
								{
									OFFSET 0.000000 14.885353 0.000000
								}
							}
						}
					}
				}
				JOINT RightShoulder
				{
					OFFSET -6.197800 13.665199 -4.064700
					CHANNELS 3 Xrotation Yrotation Zrotation
					JOINT RightArm
					{
						OFFSET -7.778100 -0.187103 -1.709300
						CHANNELS 3 Xrotation Yrotation Zrotation
						JOINT RightForeArm
						{
							OFFSET -22.049376 0.000000 0.000000
							CHANNELS 3 Xrotation Yrotation Zrotation
							JOINT RightHand
							{
								OFFSET -23.009392 0.000000 0.000000
								CHANNELS 3 Xrotation Yrotation Zrotation
								JOINT RightHandThumb1
								{
									OFFSET -3.507191 -2.063065 3.133727
									CHANNELS 3 Xrotation Yrotation Zrotation
									JOINT RightHandThumb2
									{
										OFFSET -3.101337 -1.790558 1.790558
										CHANNELS 3 Xrotation Yrotation Zrotation
										JOINT RightHandThumb3
										{
											OFFSET -3.058640 -1.765907 1.765906
											CHANNELS 3 Xrotation Yrotation Zrotation
											End Site
											{
												OFFSET 0.415260 3.926476 -0.049563
											}
										}
									}
								}
								JOINT RightHandIndex1
								{
									OFFSET -11.334419 -0.901459 3.706815
									CHANNELS 3 Xrotation Yrotation Zrotation
									JOINT RightHandIndex2
									{
										OFFSET -3.283112 0.000000 0.000000
										CHANNELS 3 Xrotation Yrotation Zrotation
										JOINT RightHandIndex3
										{
											OFFSET -3.323853 0.000000 0.000000
											CHANNELS 3 Xrotation Yrotation Zrotation
											End Site
											{
												OFFSET 1.135597 3.097809 0.402452
											}
										}
									}
								}
								JOINT RightHandMiddle1
								{
									OFFSET -11.335861 0.000000 0.000000
									CHANNELS 3 Xrotation Yrotation Zrotation
									JOINT RightHandMiddle2
									{
										OFFSET -3.410492 0.000000 0.000000
										CHANNELS 3 Xrotation Yrotation Zrotation
										JOINT RightHandMiddle3
										{
											OFFSET -3.312172 0.000000 0.000000
											CHANNELS 3 Xrotation Yrotation Zrotation
											End Site
											{
												OFFSET 1.150200 3.080154 0.400270
											}
										}
									}
								}
								JOINT RightHandRing1
								{
									OFFSET -11.514786 -0.013176 -3.003090
									CHANNELS 3 Xrotation Yrotation Zrotation
									JOINT RightHandRing2
									{
										OFFSET -3.053307 0.000000 0.000000
										CHANNELS 3 Xrotation Yrotation Zrotation
										JOINT RightHandRing3
										{
											OFFSET -3.295807 0.000000 0.000000
											CHANNELS 3 Xrotation Yrotation Zrotation
											End Site
											{
												OFFSET 1.281006 3.013344 0.375733
											}
										}
									}
								}
								JOINT RightHandPinky1
								{
									OFFSET -10.518692 -0.960396 -5.730441
									CHANNELS 3 Xrotation Yrotation Zrotation
									JOINT RightHandPinky2
									{
										OFFSET -2.861649 0.000000 0.000000
										CHANNELS 3 Xrotation Yrotation Zrotation
										JOINT RightHandPinky3
										{
											OFFSET -2.863380 0.000000 0.000000
											CHANNELS 3 Xrotation Yrotation Zrotation
											End Site
											{
												OFFSET 0.843597 2.711159 0.369971
											}
										}
									}
								}
							}
							JOINT RSleeve
							{
								OFFSET -6.676277 -0.344902 -1.011730
								CHANNELS 3 Xrotation Yrotation Zrotation
								End Site
								{
									OFFSET 0.000000 14.885353 0.000000
								}
							}
						}
					}
				}
				JOINT Backpack
				{
					OFFSET 0.000000 -2.471497 36.677502
					CHANNELS 3 Xrotation Yrotation Zrotation
					End Site
					{
						OFFSET 0.000000 20.427315 0.000000
					}
				}
				JOINT Hood
				{
					OFFSET 0.000000 18.754097 -10.431000
					CHANNELS 3 Xrotation Yrotation Zrotation
					JOINT Hood1
					{
						OFFSET 0.000000 -5.011002 -7.685901
						CHANNELS 3 Xrotation Yrotation Zrotation
						End Site
						{
							OFFSET 0.000000 9.175140 0.000000
						}
					}
				}
				JOINT LHoodieString
				{
					OFFSET 5.250500 16.397697 3.089900
					CHANNELS 3 Xrotation Yrotation Zrotation
					JOINT LHoodieString1
					{
						OFFSET 0.257700 -6.364304 3.694600
						CHANNELS 3 Xrotation Yrotation Zrotation
						JOINT LHoodieString2
						{
							OFFSET 0.000000 -9.643799 2.679100
							CHANNELS 3 Xrotation Yrotation Zrotation
							End Site
							{
								OFFSET 0.000000 10.009018 0.000000
							}
						}
					}
				}
				JOINT RHoodieString
				{
					OFFSET -5.250500 16.397697 3.089900
					CHANNELS 3 Xrotation Yrotation Zrotation
					JOINT RHoodieString1
					{
						OFFSET -0.257700 -6.364304 3.694600
						CHANNELS 3 Xrotation Yrotation Zrotation
						JOINT RHoodieString2
						{
							OFFSET 0.000000 -9.643799 2.679100
							CHANNELS 3 Xrotation Yrotation Zrotation
							End Site
							{
								OFFSET 0.000000 10.009018 0.000000
							}
						}
					}
				}
			}
			JOINT LBackpack_Strap
			{
				OFFSET 15.223200 -7.719803 -6.610900
				CHANNELS 3 Xrotation Yrotation Zrotation
				End Site
				{
					OFFSET 0.000000 16.040596 0.000000
				}
			}
			JOINT RBackpack_Strap
			{
				OFFSET -15.223000 -7.719803 -6.610900
				CHANNELS 3 Xrotation Yrotation Zrotation
				End Site
				{
					OFFSET 0.000000 16.040596 0.000000
				}
			}
		}
	}
	JOINT BoyFacialAnim_Joint
	{
		OFFSET 1.000000 -82.208099 -1.550900
		CHANNELS 3 Xrotation Yrotation Zrotation
		End Site
		{
			OFFSET 0.000000 30.012791 0.000000
		}
	}
}
MOTION
Frames: 4
Frame Time: 0.033333
0.540552 53.625496 -1.012133 2.875086 1.305069 -3.340048 0.000000 0.000000 -0.000000 -87.938856 -6.319263 4.508361 79.047227 -4.276192 3.770218 5.005703 -0.051100 -7.809160 0.000000 0.000000 0.000000 0.000000 0.000000 0.000000 0.000000 0.000000 -0.000001 -86.425655 -1.966730 -13.431847 83.088213 0.733507 0.154600 -0.898577 -0.015866 2.880122 -0.000000 0.000000 -0.000000 -0.000000 0.000000 -0.000000 0.000000 -0.000001 -0.000000 6.263997 1.028451 0.179401 3.934266 0.296065 0.396515 3.932011 0.336954 0.402419 4.360324 -1.321975 -3.013953 -9.154754 -10.913883 2.412645 0.000001 0.000000 -0.000000 0.000001 0.000000 -0.000000 0.000001 0.000000 -0.000000 0.113251 -7.492637 -5.743579 -3.412201 -11.215869 -65.530857 0.000305 -86.706758 0.000282 45.838895 12.633527 17.730369 5.248296 13.559842 4.686693 -15.558333 11.892281 -3.151215 0.000002 -0.000002 -0.000001 -0.263539 -1.539937 -7.676165 0.471042 2.507407 -21.276167 -0.000001 0.000000 -0.000005 -0.016094 0.139167 -5.235609 0.136055 1.364803 -11.386094 0.000001 -0.000001 0.000000 0.067208 1.892445 -2.088153 0.064901 0.945061 -7.856674 0.000000 -0.000001 -0.000000 -0.486801 4.655357 5.912581 0.217914 -2.324410 -15.004008 0.000004 0.000001 -0.000000 0.000001 0.000000 0.000001 0.459328 3.031719 -0.264188 -16.788788 26.159913 51.753750 -0.002031 88.405099 0.001994 22.330959 -11.744500 -14.902718 -4.439082 5.287571 -4.421574 -1.599553 -0.853449 0.570459 0.000002 -0.000001 -0.000002 0.795447 8.680633 -4.970216 0.535262 -2.679874 22.586561 -0.000003 0.000002 0.000006 -0.023047 -0.052811 5.135214 1.484617 -4.299181 38.087635 -0.000000 -0.000001 -0.000004 1.329908 -4.543140 22.969021 2.907358 -5.657054 54.372418 -0.000001 0.000000 0.000004 7.574758 -11.743744 38.904952 3.018235 -5.734511 55.489314 -0.000001 -0.000001 -0.000000 -0.000000 0.000001 0.000003 -0.000001 -0.000000 -0.000000 -0.000001 -0.000000 -0.000000 -0.000001 -0.000000 -0.000000 -0.000001 -0.000000 -0.000000 -0.000001 -0.000000 -0.000000 -0.000001 0.000000 -0.000000 -0.000001 -0.000000 -0.000000 -0.000001 -0.000000 -0.000000 -0.000001 0.000000 -0.000000 0.000001 0.000000 0.000000 0.000001 0.000000 0.000000 0.000000 0.000000 -0.000000 
0.527268 53.619774 -1.023761 2.849294 1.240806 -3.317537 -0.000000 -0.000000 -0.000000 -87.905395 -6.359982 4.526472 79.044488 -4.200098 3.776024 5.003691 -0.052777 -7.865128 0.000000 0.000000 -0.000000 0.000000 0.000000 -0.000000 0.000000 -0.000000 0.000000 -86.433612 -1.986572 -13.388795 83.082858 0.757318 0.151774 -0.877931 -0.014113 2.837401 -0.000000 -0.000000 0.000000 -0.000000 -0.000000 0.000000 0.000000 0.000000 0.000000 6.261164 1.008761 0.181017 3.929641 0.288945 0.381814 3.927533 0.328093 0.387586 4.287743 -1.320492 -2.942616 -9.518913 -10.957381 2.736088 0.000000 -0.000000 0.000000 0.000000 -0.000000 0.000000 0.000000 -0.000000 0.000000 0.111820 -7.503673 -5.753489 -3.406545 -11.022328 -65.546156 -0.000147 -86.724456 -0.000183 45.868047 12.572664 17.670143 5.248294 13.559842 4.686694 -15.558333 11.892285 -3.151215 0.000003 -0.000001 -0.000001 -0.263538 -1.539936 -7.676165 0.471037 2.507406 -21.276164 -0.000001 -0.000001 -0.000000 -0.016094 0.139167 -5.235609 0.136054 1.364803 -11.386098 0.000001 0.000000 -0.000003 0.067204 1.892446 -2.088155 0.064898 0.945061 -7.856673 -0.000001 -0.000000 -0.000000 -0.486799 4.655357 5.912584 0.217911 -2.324412 -15.004006 0.000002 0.000001 -0.000000 -0.000000 0.000001 -0.000001 0.460884 2.958742 -0.282111 -15.243372 25.547722 52.199622 0.001775 88.597888 -0.001657 29.668757 -11.736883 -8.099780 -5.283072 5.089069 -5.003008 -1.477386 -0.747577 0.371946 -0.000002 0.000000 -0.000000 1.046770 8.827205 -6.643121 0.516395 -2.634127 22.179675 0.000001 -0.000003 -0.000001 -0.066567 0.361617 5.532529 1.460024 -4.267703 37.758341 0.000000 0.000001 -0.000000 1.607235 -5.099649 23.768293 2.836032 -5.605505 53.645607 0.000000 -0.000000 0.000002 7.223834 -11.263347 39.125905 2.744246 -5.537102 52.700029 -0.000000 -0.000000 0.000002 0.000002 -0.000000 -0.000001 0.000000 -0.000000 -0.000000 0.000000 -0.000000 -0.000000 0.000000 -0.000000 -0.000000 0.000000 -0.000000 -0.000000 0.000000 -0.000000 -0.000000 -0.000001 0.000000 0.000000 0.000000 -0.000000 -0.000000 0.000000 -0.000000 -0.000000 -0.000001 0.000000 0.000000 -0.000000 0.000000 -0.000000 -0.000000 0.000000 -0.000000 -0.000000 -0.000000 -0.000000 
0.511042 53.612038 -1.035907 2.828180 1.168179 -3.281426 -0.000000 0.000000 -0.000000 -87.873259 -6.402634 4.545652 79.039352 -4.121950 3.776537 5.003410 -0.054634 -7.929855 -0.000000 0.000000 -0.000000 -0.000000 0.000000 -0.000000 -0.000000 0.000000 -0.000000 -86.455517 -1.998210 -13.336647 83.082961 0.779129 0.142109 -0.855999 -0.012374 2.795181 -0.000000 -0.000001 -0.000000 -0.000000 -0.000001 -0.000000 -0.000000 -0.000001 0.000000 6.265791 0.983661 0.182590 3.923066 0.279643 0.362495 3.921134 0.316616 0.368073 4.208879 -1.310953 -2.872321 -9.931527 -10.967184 3.072475 -0.000000 0.000000 -0.000000 -0.000000 0.000000 -0.000000 -0.000000 0.000000 -0.000000 0.110374 -7.514470 -5.778531 -3.388280 -10.789205 -65.541846 0.001221 -86.775764 0.001245 45.895439 12.503232 17.596056 5.248296 13.559843 4.686692 -15.558336 11.892286 -3.151214 -0.000002 -0.000001 -0.000001 -0.263539 -1.539936 -7.676165 0.471039 2.507405 -21.276162 -0.000002 0.000000 -0.000002 -0.016093 0.139168 -5.235611 0.136055 1.364802 -11.386097 0.000002 0.000001 -0.000003 0.067204 1.892447 -2.088156 0.064896 0.945061 -7.856674 0.000001 -0.000001 -0.000000 -0.486799 4.655357 5.912583 0.217915 -2.324411 -15.004008 0.000001 0.000001 -0.000000 0.000000 0.000000 -0.000000 0.460946 2.909972 -0.325157 -13.918820 24.817248 52.993409 0.004379 88.719977 -0.004338 36.614103 -10.545005 -1.845933 -5.974955 4.666761 -5.808138 -1.406485 -0.656935 0.142563 -0.000002 0.000001 0.000000 1.418280 8.972274 -9.146479 0.485964 -2.558288 21.507699 0.000000 -0.000001 0.000002 -0.075981 0.606958 4.893760 1.388742 -4.174281 36.789735 0.000002 0.000000 -0.000002 1.739657 -5.359089 24.082658 2.721898 -5.520070 52.468123 -0.000002 0.000001 0.000002 7.104025 -11.165327 38.929090 2.441257 -5.293675 49.490536 0.000000 -0.000000 0.000002 0.000002 0.000001 0.000001 0.000003 0.000000 -0.000000 0.000003 0.000000 -0.000000 0.000003 0.000000 -0.000000 0.000003 0.000000 -0.000000 0.000003 0.000000 -0.000000 -0.000000 0.000000 0.000000 0.000003 0.000000 -0.000000 0.000003 0.000000 -0.000000 -0.000000 0.000000 0.000000 0.000001 -0.000000 0.000000 0.000001 -0.000000 0.000000 -0.000000 0.000000 -0.000000 
0.496261 53.605988 -1.047560 2.794368 1.087755 -3.230811 0.000000 0.000000 -0.000000 -87.819820 -6.444541 4.556601 79.032098 -4.029088 3.778458 5.000357 -0.056961 -8.008971 -0.000000 0.000000 0.000000 -0.000000 0.000000 0.000000 -0.000000 -0.000000 -0.000000 -86.468965 -2.007062 -13.286424 83.084081 0.812179 0.125748 -0.834126 -0.010778 2.749339 -0.000000 -0.000001 -0.000000 -0.000000 -0.000001 -0.000000 -0.000000 -0.000001 0.000000 6.285135 0.952055 0.186417 3.922514 0.267745 0.342374 3.920781 0.302421 0.347698 4.136193 -1.293166 -2.791213 -10.371481 -10.932297 3.425654 -0.000000 -0.000001 0.000001 -0.000000 -0.000001 0.000001 -0.000000 -0.000001 0.000001 0.107795 -7.533740 -5.817462 -3.362691 -10.524056 -65.516944 -0.000051 -86.842980 -0.000016 45.904069 12.427643 17.530379 5.248294 13.559843 4.686693 -15.558336 11.892281 -3.151215 0.000001 -0.000002 -0.000001 -0.263542 -1.539937 -7.676166 0.471040 2.507407 -21.276166 -0.000003 -0.000001 -0.000004 -0.016100 0.139167 -5.235608 0.136056 1.364803 -11.386097 0.000003 -0.000000 -0.000001 0.067204 1.892447 -2.088156 0.064900 0.945061 -7.856674 -0.000001 -0.000001 -0.000001 -0.486802 4.655357 5.912583 0.217914 -2.324413 -15.004008 -0.000000 0.000001 -0.000000 -0.000000 -0.000000 0.000001 0.461095 2.873617 -0.359256 -12.726808 23.971734 53.993322 0.005756 88.816269 -0.005373 43.080551 -8.522288 3.124083 -6.644521 4.035199 -6.317738 -1.414013 -0.583340 -0.155875 0.000002 0.000001 -0.000000 1.638625 8.965175 -10.752795 0.466592 -2.508615 21.069488 -0.000000 -0.000003 0.000001 -0.066555 0.691836 4.126765 1.286152 -4.033830 35.356508 0.000000 0.000001 0.000002 1.778738 -5.456592 23.987409 2.571788 -5.401992 50.891142 0.000000 -0.000001 0.000004 6.795654 -10.891903 38.484069 2.130342 -5.012475 46.029864 0.000001 -0.000000 -0.000001 -0.000001 0.000000 0.000001 0.000002 -0.000000 0.000000 0.000002 -0.000000 0.000000 0.000002 -0.000000 0.000000 0.000002 -0.000000 0.000000 0.000002 -0.000000 0.000000 -0.000000 0.000000 0.000000 0.000002 -0.000000 0.000000 0.000002 -0.000000 0.000000 -0.000000 0.000000 0.000000 0.000000 0.000000 0.000000 0.000000 0.000000 0.000000 0.000000 0.000000 -0.000000 
